<?xml version="1.0" encoding="UTF-8"?> <svg xmlns="http://www.w3.org/2000/svg" width="279" height="38" viewBox="0 0 279 38" fill="none"><path d="M177.3 23.2C177.6 23.9 177.9 24.6 178.1 25.3C178.3 26 178.4 26.7 178.4 27.5C178.4 28.8 178.1 30.1 177.6 31.2C177.1 32.4 176.3 33.5 175.3 34.3C174.3 35.2 173.2 35.9 171.9 36.4C170.7 36.9 169.3 37.1 167.9 37.1H150.4V8.09998H174.7V13.9H156.6V17.7H166.5C171.1 17.7 175.1 19 177.3 23.2ZM156.6 31.3H167.9C168.5 31.3 169 31.2 169.5 31C170 30.8 170.5 30.5 170.9 30.2C171.3 29.8 171.6 29.4 171.8 29C172 28.6 172.1 28.1 172.1 27.5C172.1 27 172 26.5 171.8 26C171.6 25.5 171.3 25.1 170.9 24.8C170.5 24.4 170.1 24.2 169.5 24C169 23.8 168.5 23.7 167.9 23.7H156.6V31.3Z" fill="#0D334F"></path><path d="M209.5 22C209.8 21.3 210.1 20.6 210.3 19.9C210.5 19.2 210.6 18.5 210.6 17.7C210.6 16.4 210.3 15.1 209.8 14C209.3 12.8 208.5 11.7 207.5 10.9C206.5 9.99996 205.4 9.29999 204.1 8.79999C202.9 8.29999 201.5 8.09998 200.1 8.09998H182.5V37.1H188.8V27.4H198.7C203.3 27.4 207.3 26.1 209.5 22ZM188.8 13.9H200.1C200.7 13.9 201.2 14 201.7 14.2C202.2 14.4 202.7 14.7 203.1 15C203.5 15.4 203.8 15.8 204 16.2C204.2 16.6 204.3 17.1 204.3 17.7C204.3 18.2 204.2 18.7 204 19.2C203.8 19.7 203.5 20.1 203.1 20.4C202.7 20.8 202.3 21 201.7 21.2C201.2 21.4 200.7 21.5 200.1 21.5H188.8V13.9Z" fill="#0D334F"></path><path d="M275.8 18.7C275.6 19.1 275.4 19.5 275.2 19.9C275.1 20.1 274.9 20.3 274.8 20.4C275.2 20.7 275.5 21.1 275.8 21.4C276.2 21.9 276.6 22.5 277 23.1C277.3 23.8 277.6 24.5 277.8 25.2C278 25.9 278.1 26.6 278.1 27.4C278.1 28.7 277.8 30 277.3 31.1C276.8 32.3 276 33.4 275 34.2C274 35.1 272.9 35.8 271.6 36.3C270.4 36.8 269 37 267.6 37H250.2V31.2H267.6C268.2 31.2 268.7 31.1 269.2 30.9C269.7 30.7 270.2 30.4 270.6 30.1C271 29.7 271.3 29.3 271.5 28.9C271.7 28.5 271.8 28 271.8 27.4C271.8 26.8 271.7 26.4 271.5 25.9C271.3 25.4 271 25 270.6 24.7C270.2 24.3 269.8 24.1 269.2 23.9C268.7 23.7 268.2 23.6 267.6 23.6H256.9V17.8H268.1C268.4 17.8 268.7 17.7 268.9 17.7C269.2 17.6 269.4 17.5 269.6 17.3C269.8 17.1 269.9 16.9 270 16.7C270.1 16.5 270.2 16.2 270.2 16C270.2 15.8 270.1 15.5 270 15.3C269.9 15.1 269.7 14.9 269.6 14.7C269.4 14.5 269.2 14.4 268.9 14.3C268.7 14.2 268.4 14.2 268.1 14.2H250.2V8.09998H268.1C269.2 8.09998 270.3 8.29998 271.3 8.69998C272.3 9.09998 273.2 9.69996 274 10.4C274.8 11.1 275.4 12 275.8 12.9C276.2 13.8 276.4 14.8 276.4 15.9C276.4 16.4 276.3 16.9 276.2 17.4C276.1 17.8 276 18.3 275.8 18.7Z" fill="#0D334F"></path><path d="M66.1998 36.5L57.4998 16.9L48.4998 37.1H41.7998L48.3998 22.3L54.6998 8.09998H60.2998C64.5998 17.8 68.8998 27.4 73.1998 37.1H66.4998L66.1998 36.5Z" fill="#0D334F"></path><path d="M139.6 19.4V37.1H145.9V8.09998C143.3 8.09998 140.6 8.09998 138 8.09998L129 28.3L120 8.09998C117.3 8.09998 114.7 8.09998 112 8.09998V37.1H118.3V19.4L119.8 22.8L126.1 37.1H131.7C134.4 31.2 137 25.3 139.6 19.4Z" fill="#0D334F"></path><path d="M239.4 16.9L238.1 19.5C237.2 21.3 236.3 23 235.3 24.9C234.4 26.6 233.4 28.3 232.5 29.9C232.5 30 232 30.7 232 30.7C231.1 32.3 230.1 34.1 228.5 35.3C226.9 36.5 225.1 37.1 223.2 37.1C221.9 37.1 220.7 36.9 219.6 36.4C218.5 35.9 217.5 35.2 216.7 34.2C215.7 32.9 215 31.3 215 29.4V29.1C215 27.3 215 24.1 214.9 20.8C214.9 17.5 214.9 14 214.9 11.7V8.09998H221.3V11.7C221.3 14.1 221.3 17.5 221.3 20.8C221.3 24.1 221.3 27.3 221.4 29.1V29.4C221.4 29.9 221.6 30.4 221.8 30.6C222 30.8 222.2 30.9 222.4 31C222.6 31.1 222.9 31.1 223.2 31.1C223.7 31.1 224.2 30.9 224.6 30.6C224.9 30.3 225.2 29.9 225.5 29.5C225.8 29 226.1 28.5 226.4 27.9C226.6 27.6 226.8 27.3 226.9 27C227.8 25.5 228.7 23.9 229.6 22.2C230.4 20.7 231.4 18.8 232.4 16.9C233 15.8 233.6 14.6 234.3 13.2C234.9 12 235.5 10.9 236.1 9.69998L237 8.09998C239.9 8.09998 242.9 8.09998 245.8 8.09998V37.1H239.4V16.9Z" fill="#0D334F"></path><path d="M89 8.09998C93.2 8.09998 96.7 9.09996 99.3 10.9C103.7 14.1 105.8 20.3 108.1 25.3C109.8 29.2 111.6 33.1 113.3 37.1H106.6L106.3 36.5L103.6 30.3C101.1 34.5 96.2 37.6 89.1 37.6C66.9 37.6 66.9 8.09998 89 8.09998ZM89 31.8C102.9 31.8 102.9 14 89 14C75.2 13.9 75.2 31.8 89 31.8Z" fill="#0D334F"></path><path fill-rule="evenodd" clip-rule="evenodd" d="M0 0H37.6V4.30002L36.7 5.89999C36.1 6.99999 35.5 8.19999 34.9 9.39999C34.2 10.8 33.6 11.9 33 13.1C32 15 31.1 16.9 30.3 18.4C29.4 20.1 28.5 21.7 27.6 23.2C27.4 23.5 27.2 23.8 27.1 24.1C26.8 24.6 26.5 25.2 26.2 25.7C25.9 26.2 25.6 26.6 25.3 26.8C24.9 27.1 24.4 27.3 23.9 27.3C23.6 27.3 23.4 27.3 23.1 27.2C22.9 27.1 22.7 27 22.5 26.8C22.2 26.5 22.1 26.1 22.1 25.6V25.3C21.9 15.3 22.1 20.8 21.9 12.3V12C21.9 10.1 21.2 8.40001 20.2 7.20001C19.4 6.20001 18.4 5.5 17.3 5C16.2 4.5 14.9 4.30002 13.7 4.30002C11.9 4.30002 10 4.90001 8.4 6.10001C6.8 7.40001 5.8 9.10001 4.9 10.7C4.9 10.7 4.5 11.5 4.4 11.6C3.5 13.2 2.5 14.9 1.6 16.6C1.1 17.6 0.5 18.6 0 19.7V0ZM37.6 17.9V37.6H0V33.3L0.900002 31.7C1.5 30.6 2.1 29.4 2.7 28.2C3.4 26.8 4 25.7 4.6 24.5C5.6 22.6 6.5 20.7 7.3 19.2C8.2 17.5 9.1 15.9 10 14.4C10.2 14.1 10.4 13.8 10.5 13.5C10.8 13 11.1 12.4 11.4 11.9C11.7 11.4 12 11 12.3 10.8C12.7 10.5 13.2 10.3 13.7 10.3C14 10.3 14.2 10.3 14.5 10.4C14.7 10.5 14.9 10.6 15.1 10.8C15.4 11.1 15.5 11.5 15.5 12V12.3C15.6 18.6 15.5 16.3 15.7 25.3V25.6C15.7 27.5 16.4 29.2 17.4 30.4C18.2 31.4 19.2 32.1 20.3 32.6C21.4 33.1 22.7 33.3 23.9 33.3C25.7 33.3 27.6 32.7 29.2 31.5C30.8 30.2 31.8 28.5 32.7 26.9C32.7 26.9 33.1 26.1 33.2 26C34.1 24.4 35.1 22.7 36 21C36.6 19.9 37.1 18.9 37.6 17.9Z" fill="#0D334F"></path></svg> 